<svg xmlns="http://www.w3.org/2000/svg" viewBox="0 0 32 32">
  <path fill="#ffffff" d="M29.887 15.559 25.9 7.553a.993.993 0 0 0-1-.547l-6.2.69A3 3 0 0 0 17 6.184V5a1 1 0 0 0-2 0v1.184a3 3 0 0 0-1.914 2.133l-6.2.689a1 1 0 0 0-.785.547l-3.99 8A.978.978 0 0 0 2 18a4 4 0 0 0 4 4h2a4 4 0 0 0 4-4 .978.978 0 0 0-.1-.427c0-.008-3.36-6.738-3.36-6.738l4.775-.531A3 3 0 0 0 15 11.816V25H9a3 3 0 0 0-2.625 1.549A1 1 0 0 0 7.272 28h17.456a1 1 0 0 0 .9-1.451A3 3 0 0 0 23 25h-6V11.816a3 3 0 0 0 1.914-2.133l4.369-.483-3.182 6.381A.982.982 0 0 0 20 16a4 4 0 0 0 4 4h2a4 4 0 0 0 4-4 .978.978 0 0 0-.113-.441ZM9.382 17H4.618L7 12.236ZM16 10a1 1 0 1 1 1-1 1 1 0 0 1-1 1Zm9 .237L27.382 15h-4.764Z"/>
</svg>
