<svg xmlns="http://www.w3.org/2000/svg" viewBox="0 0 512 512">
  <path fill="#ffffff" d="M384.504 390.984c-33.084 0-60 26.918-60 60.004s26.916 60.004 60 60.004 60-26.918 60-60.004-26.916-60.004-60-60.004zM370.88 239.947L240.491 148.67c-5.664-.086-13.027-1.08-18.18 6.416L65.08 383.795c-18.745 27.267-11.842 64.723 15.388 83.497l49.454 34.095c27.305 18.825 64.668 11.951 83.487-15.424l157.208-228.676c5.064-7.368 1.515-14.198.263-17.34zm73.656-217.498l-24.753-17.15c-13.428-9.303-32.056-6.036-41.522 7.284l-92.974 130.824 73.769 51.642 92.842-130.497c9.707-13.643 6.406-32.565-7.362-42.103z"/>
</svg>
